<?xml version="1.0" standalone="no"?>
<!DOCTYPE svg PUBLIC "-//W3C//DTD SVG 20010904//EN"
 "http://www.w3.org/TR/2001/REC-SVG-20010904/DTD/svg10.dtd">
<svg version="1.0" xmlns="http://www.w3.org/2000/svg"
 width="300.000000pt" height="300.000000pt" viewBox="0 0 300.000000 300.000000"
 preserveAspectRatio="xMidYMid meet">
<metadata>
Created by potrace 1.11, written by Peter Selinger 2001-2013
</metadata>
<g transform="translate(0.000000,300.000000) scale(0.100000,-0.100000)"
fill="#000000" stroke="none">
<path d="M1259 2553 c-25 -43 -113 -193 -139 -238 -9 -16 -94 -162 -188 -323
-95 -161 -172 -297 -172 -303 0 -5 -3 -9 -7 -9 -5 0 -13 -10 -19 -23 -6 -12
-59 -104 -117 -204 -59 -101 -154 -263 -210 -360 -57 -98 -127 -216 -154 -263
-28 -47 -60 -101 -70 -120 -11 -19 -57 -97 -101 -172 l-81 -138 1499 0 1499 0
-68 117 c-38 65 -78 134 -89 153 -12 19 -34 58 -50 85 -15 28 -163 280 -327
560 -164 281 -306 524 -315 540 -10 17 -32 55 -50 85 -18 30 -43 73 -55 95
-70 124 -111 187 -120 184 -5 -1 -53 -77 -107 -168 -53 -91 -100 -166 -105
-165 -4 0 -100 159 -213 352 -113 193 -208 352 -212 352 -3 0 -16 -17 -29 -37z"/>
</g>
</svg>
